<?xml version="1.0" encoding="UTF-8"?>
<svg width="12px" height="15px" viewBox="0 0 12 15" version="1.1" xmlns="http://www.w3.org/2000/svg" xmlns:xlink="http://www.w3.org/1999/xlink">
    <title>Group</title>
    <g id="Page-1" stroke="none" stroke-width="1" fill="none" fill-rule="evenodd">
        <g id="Mobile-Final" transform="translate(-351.000000, -468.000000)" fill="#C4A7ED" fill-rule="nonzero">
            <g id="Group-8" transform="translate(0.000000, 125.000000)">
                <g id="Group-6" transform="translate(0.000000, 209.000000)">
                    <g id="Group-5" transform="translate(32.000000, 89.000000)">
                        <g id="Group" transform="translate(319.000000, 45.000000)">
                            <path d="M11.6234196,1.93186523 L10.2337232,0.411884766 C9.99260639,0.148161286 9.66558123,0 9.32458929,0 L4.71428571,0 C4.00419643,0 3.42857143,0.629589844 3.42857143,1.40625 L3.42857143,2.8125 L1.28571429,2.8125 C0.575625,2.8125 0,3.44208984 0,4.21875 L0,13.59375 C0,14.3704102 0.575625,15 1.28571429,15 L7.28571429,15 C7.99580357,15 8.57142857,14.3704102 8.57142857,13.59375 L8.57142857,12.1875 L10.7142857,12.1875 C11.424375,12.1875 12,11.5579102 12,10.78125 L12,2.92623047 C12,2.55327053 11.8645383,2.19558676 11.6234196,1.93186523 Z M7.125,13.59375 L1.44642857,13.59375 C1.35766852,13.59375 1.28571429,13.5150501 1.28571429,13.4179688 L1.28571429,4.39453125 C1.28571429,4.29744995 1.35766852,4.21875 1.44642857,4.21875 L3.42857143,4.21875 L3.42857143,10.78125 C3.42857143,11.5579102 4.00419643,12.1875 4.71428571,12.1875 L7.28571429,12.1875 L7.28571429,13.4179688 C7.28571429,13.5150501 7.21376005,13.59375 7.125,13.59375 Z M10.5535714,10.78125 L4.875,10.78125 C4.78623995,10.78125 4.71428571,10.7025501 4.71428571,10.6054688 L4.71428571,1.58203125 C4.71428571,1.48494995 4.78623995,1.40625 4.875,1.40625 L7.71428571,1.40625 L7.71428571,3.984375 C7.71428571,4.37270508 8.00209821,4.6875 8.35714286,4.6875 L10.7142857,4.6875 L10.7142857,10.6054688 C10.7142857,10.7025501 10.6423315,10.78125 10.5535714,10.78125 L10.5535714,10.78125 Z M10.7142857,3.28125 L9,3.28125 L9,1.40625 L9.258,1.40625 C9.30061607,1.40625 9.34149107,1.42476562 9.37165179,1.45772461 L10.6672232,2.87475586 C10.6973618,2.90772554 10.7142857,2.95244028 10.7142857,2.9990625 L10.7142857,3.28125 L10.7142857,3.28125 Z" id="Shape"></path>
                        </g>
                    </g>
                </g>
            </g>
        </g>
    </g>
</svg>