<?xml version="1.0" encoding="UTF-8"?>
<svg width="18px" height="15px" viewBox="0 0 18 15" version="1.1" xmlns="http://www.w3.org/2000/svg" xmlns:xlink="http://www.w3.org/1999/xlink">
    <title>Group</title>
    <g id="Page-1" stroke="none" stroke-width="1" fill="none" fill-rule="evenodd">
        <g id="Mobile-Final" transform="translate(-261.000000, -698.000000)" fill="#FFFFFF" fill-rule="nonzero">
            <g id="Group-8" transform="translate(0.000000, 125.000000)">
                <g id="Group-6" transform="translate(0.000000, 209.000000)">
                    <g id="Group-3" transform="translate(32.000000, 345.000000)">
                        <g id="Group-2" transform="translate(103.000000, 14.000000)">
                            <g id="Group" transform="translate(126.000000, 5.000000)">
                                <path d="M17.3773974,5.3564663 L10.9714523,0.180464196 C10.7271994,-0.0168944639 10.3940801,-0.0556802879 10.1124175,0.0804448316 C9.82829475,0.218307091 9.64697515,0.509978455 9.64608429,0.830590064 L9.64608429,3.33107417 C0.818479193,3.9395253 0.000350824612,13.9998064 0.000350824612,14.1081607 C-0.0108686809,14.5004843 0.248093773,14.8476242 0.622128385,14.9416554 C0.68492537,14.9693948 0.750891004,14.9889961 0.818479193,15 C1.13992136,14.9993167 1.43118513,14.8069285 1.56297601,14.5082381 C1.64478885,14.3248693 3.47739639,10.3407646 9.64608429,10.0240366 L9.64608429,12.5245207 C9.64697515,12.8451323 9.82829475,13.1368037 10.1124175,13.274666 C10.3940801,13.4107911 10.7271994,13.3720053 10.9714523,13.1746466 L17.3773974,7.9986445 C17.7705879,7.68252369 18,7.2003451 18,6.69005782 C18,6.17977054 17.7705879,5.69759195 17.3773974,5.38147114 L17.3773974,5.3564663 Z M11.282341,10.7741819 L11.282341,9.16553708 C11.282341,8.70521067 10.9160525,8.33204238 10.4642127,8.33204238 C7.54761365,8.20783738 4.68176865,9.13776329 2.37292309,10.9575507 C3.33831457,8.33204238 5.5308986,4.99806357 10.4642127,4.99806357 C10.9160525,4.99806357 11.282341,4.62489529 11.282341,4.16456887 L11.282341,2.5559241 L16.3629182,6.66505298 L11.282341,10.7741819 Z" id="Shape"></path>
                            </g>
                        </g>
                    </g>
                </g>
            </g>
        </g>
    </g>
</svg>